<svg xmlns="http://www.w3.org/2000/svg" width="1200" height="800"><rect width="1200" height="800" x="0" y="0" fill="#FFFFFF" id="background"/><g id="series"><g transform="translate(0,0)"><g transform="translate(50,50)" clip-path="url(#serieClipPath)"><g id="axis"><g transform="translate(0,700)" fill="none" font-size="10" font-family="sans-serif" text-anchor="middle"><path class="domain" stroke="currentColor" d="M0,6V0H900V6"/><g class="tick" opacity="1" transform="translate(0,0)"><line stroke="currentColor" y2="6"/><text fill="currentColor" y="9" dy="0.71em">0</text></g><g class="tick" opacity="1" transform="translate(113,0)"><line stroke="currentColor" y2="6"/><text fill="currentColor" y="9" dy="0.71em">5</text></g><g class="tick" opacity="1" transform="translate(225,0)"><line stroke="currentColor" y2="6"/><text fill="currentColor" y="9" dy="0.71em">10</text></g><g class="tick" opacity="1" transform="translate(338,0)"><line stroke="currentColor" y2="6"/><text fill="currentColor" y="9" dy="0.71em">15</text></g><g class="tick" opacity="1" transform="translate(450,0)"><line stroke="currentColor" y2="6"/><text fill="currentColor" y="9" dy="0.71em">20</text></g><g class="tick" opacity="1" transform="translate(563,0)"><line stroke="currentColor" y2="6"/><text fill="currentColor" y="9" dy="0.71em">25</text></g><g class="tick" opacity="1" transform="translate(675,0)"><line stroke="currentColor" y2="6"/><text fill="currentColor" y="9" dy="0.71em">30</text></g><g class="tick" opacity="1" transform="translate(788,0)"><line stroke="currentColor" y2="6"/><text fill="currentColor" y="9" dy="0.71em">35</text></g><g class="tick" opacity="1" transform="translate(900,0)"><line stroke="currentColor" y2="6"/><text fill="currentColor" y="9" dy="0.71em">40</text></g><text x="900" dy="-5" text-anchor="end" style="font-family: Arial, sans-serif; font-size: 12px; fill: rgb(123, 123, 123); font-weight: bold;">arrival_rank</text></g><g fill="none" font-size="10" font-family="sans-serif" text-anchor="end"><path class="domain" stroke="currentColor" d="M-6,700H0V0H-6"/><g class="tick" opacity="1" transform="translate(0,700)"><line stroke="currentColor" x2="-6"/><text fill="currentColor" x="-9" dy="0.32em">0</text></g><g class="tick" opacity="1" transform="translate(0,613)"><line stroke="currentColor" x2="-6"/><text fill="currentColor" x="-9" dy="0.32em">5</text></g><g class="tick" opacity="1" transform="translate(0,525)"><line stroke="currentColor" x2="-6"/><text fill="currentColor" x="-9" dy="0.32em">10</text></g><g class="tick" opacity="1" transform="translate(0,438)"><line stroke="currentColor" x2="-6"/><text fill="currentColor" x="-9" dy="0.32em">15</text></g><g class="tick" opacity="1" transform="translate(0,350)"><line stroke="currentColor" x2="-6"/><text fill="currentColor" x="-9" dy="0.32em">20</text></g><g class="tick" opacity="1" transform="translate(0,263)"><line stroke="currentColor" x2="-6"/><text fill="currentColor" x="-9" dy="0.32em">25</text></g><g class="tick" opacity="1" transform="translate(0,175)"><line stroke="currentColor" x2="-6"/><text fill="currentColor" x="-9" dy="0.32em">30</text></g><g class="tick" opacity="1" transform="translate(0,88)"><line stroke="currentColor" x2="-6"/><text fill="currentColor" x="-9" dy="0.32em">35</text></g><g class="tick" opacity="1" transform="translate(0,0)"><line stroke="currentColor" x2="-6"/><text fill="currentColor" x="-9" dy="0.32em">40</text></g><text x="4" text-anchor="start" dominant-baseline="hanging" style="font-family: Arial, sans-serif; font-size: 12px; fill: rgb(123, 123, 123); font-weight: bold;">revenue_rank</text></g></g><g id="viz"><g><circle cx="878" cy="0" fill="#cccccc" r="50" stroke="none"/></g><g><circle cx="855" cy="175" fill="#cccccc" r="34" stroke="none"/></g><g><circle cx="315" cy="210" fill="#cccccc" r="28" stroke="none"/></g><g><circle cx="608" cy="70" fill="#cccccc" r="23" stroke="none"/></g><g><circle cx="653" cy="52" fill="#cccccc" r="20" stroke="none"/></g><g><circle cx="900" cy="35" fill="#cccccc" r="20" stroke="none"/></g><g><circle cx="788" cy="88" fill="#cccccc" r="17" stroke="none"/></g><g><circle cx="113" cy="280" fill="#cccccc" r="16" stroke="none"/></g><g><circle cx="518" cy="420" fill="#cccccc" r="15" stroke="none"/></g><g><circle cx="630" cy="193" fill="#cccccc" r="15" stroke="none"/></g><g><circle cx="203" cy="350" fill="#cccccc" r="14" stroke="none"/></g><g><circle cx="833" cy="18" fill="#cccccc" r="14" stroke="none"/></g><g><circle cx="810" cy="315" fill="#cccccc" r="13" stroke="none"/></g><g><circle cx="293" cy="245" fill="#cccccc" r="11" stroke="none"/></g><g><circle cx="45" cy="490" fill="#cccccc" r="10" stroke="none"/></g><g><circle cx="158" cy="298" fill="#cccccc" r="10" stroke="none"/></g><g><circle cx="675" cy="123" fill="#cccccc" r="10" stroke="none"/></g><g><circle cx="360" cy="455" fill="#cccccc" r="9" stroke="none"/></g><g><circle cx="765" cy="438" fill="#cccccc" r="8" stroke="none"/></g><g><circle cx="495" cy="227" fill="#cccccc" r="8" stroke="none"/></g><g><circle cx="563" cy="560" fill="#cccccc" r="7" stroke="none"/></g><g><circle cx="248" cy="543" fill="#cccccc" r="7" stroke="none"/></g><g><circle cx="405" cy="368" fill="#cccccc" r="7" stroke="none"/></g><g><circle cx="473" cy="105" fill="#cccccc" r="7" stroke="none"/></g><g><circle cx="225" cy="525" fill="#cccccc" r="6" stroke="none"/></g><g><circle cx="23" cy="473" fill="#cccccc" r="6" stroke="none"/></g><g><circle cx="270" cy="402" fill="#cccccc" r="6" stroke="none"/></g><g><circle cx="180" cy="385" fill="#cccccc" r="6" stroke="none"/></g><g><circle cx="450" cy="333" fill="#cccccc" r="6" stroke="none"/></g><g><circle cx="428" cy="263" fill="#cccccc" r="6" stroke="none"/></g><g><circle cx="698" cy="140" fill="#cccccc" r="6" stroke="none"/></g><g><circle cx="720" cy="613" fill="#cccccc" r="5" stroke="none"/></g><g><circle cx="585" cy="595" fill="#cccccc" r="5" stroke="none"/></g><g><circle cx="338" cy="683" fill="#cccccc" r="4" stroke="none"/></g><g><circle cx="383" cy="648" fill="#cccccc" r="4" stroke="none"/></g><g><circle cx="135" cy="578" fill="#cccccc" r="4" stroke="none"/></g><g><circle cx="90" cy="630" fill="#cccccc" r="3" stroke="none"/></g><g><circle cx="743" cy="508" fill="#cccccc" r="3" stroke="none"/></g><g><circle cx="68" cy="665" fill="#cccccc" r="2" stroke="none"/></g><g><circle cx="540" cy="157" fill="#cccccc" r="2" stroke="none"/></g><g id="labels"><g transform="translate(878,0)"><text x="0" y="0" text-anchor="middle" dominant-baseline="text-before-edge" transform="translate(0,-5.59375)"><tspan x="0" y="0" dy="0" style="font-family: Arial, sans-serif; font-size: 10px; fill: black; font-weight: bold;">United States</tspan></text></g><g transform="translate(855,175)"><text x="0" y="0" text-anchor="middle" dominant-baseline="text-before-edge" transform="translate(0,-5.59375)"><tspan x="0" y="0" dy="0" style="font-family: Arial, sans-serif; font-size: 10px; fill: black; font-weight: bold;">China</tspan></text></g><g transform="translate(315,210)"><text x="0" y="0" text-anchor="middle" dominant-baseline="text-before-edge" transform="translate(0,-5.59375)"><tspan x="0" y="0" dy="0" style="font-family: Arial, sans-serif; font-size: 10px; fill: black; font-weight: bold;">Japan</tspan></text></g><g transform="translate(608,70)"><text x="0" y="0" text-anchor="middle" dominant-baseline="text-before-edge" transform="translate(0,-5.59375)"><tspan x="0" y="0" dy="0" style="font-family: Arial, sans-serif; font-size: 10px; fill: black; font-weight: bold;">Germany</tspan></text></g><g transform="translate(653,52)"><text x="0" y="0" text-anchor="middle" dominant-baseline="text-before-edge" transform="translate(0,-5.59375)"><tspan x="0" y="0" dy="0" style="font-family: Arial, sans-serif; font-size: 10px; fill: black; font-weight: bold;">United Kingdom</tspan></text></g><g transform="translate(900,35)"><text x="0" y="0" text-anchor="middle" dominant-baseline="text-before-edge" transform="translate(0,-5.59375)"><tspan x="0" y="0" dy="0" style="font-family: Arial, sans-serif; font-size: 10px; fill: black; font-weight: bold;">France</tspan></text></g><g transform="translate(788,88)"><text x="0" y="0" text-anchor="middle" dominant-baseline="text-before-edge" transform="translate(0,-5.59375)"><tspan x="0" y="0" dy="0" style="font-family: Arial, sans-serif; font-size: 10px; fill: black; font-weight: bold;">Italy</tspan></text></g><g transform="translate(113,280)"><text x="0" y="0" text-anchor="middle" dominant-baseline="text-before-edge" transform="translate(0,-5.59375)"><tspan x="0" y="0" dy="0" style="font-family: Arial, sans-serif; font-size: 10px; fill: black; font-weight: bold;">India</tspan></text></g><g transform="translate(518,420)"><text x="0" y="0" text-anchor="middle" dominant-baseline="text-before-edge" transform="translate(0,-5.59375)"><tspan x="0" y="0" dy="0" style="font-family: Arial, sans-serif; font-size: 10px; fill: black; font-weight: bold;">Russian Federation</tspan></text></g><g transform="translate(630,193)"><text x="0" y="0" text-anchor="middle" dominant-baseline="text-before-edge" transform="translate(0,-5.59375)"><tspan x="0" y="0" dy="0" style="font-family: Arial, sans-serif; font-size: 10px; fill: black; font-weight: bold;">Canada</tspan></text></g><g transform="translate(203,350)"><text x="0" y="0" text-anchor="middle" dominant-baseline="text-before-edge" transform="translate(0,-5.59375)"><tspan x="0" y="0" dy="0" style="font-family: Arial, sans-serif; font-size: 10px; fill: black; font-weight: bold;">Korea, Rep.</tspan></text></g><g transform="translate(833,18)"><text x="0" y="0" text-anchor="middle" dominant-baseline="text-before-edge" transform="translate(0,-5.59375)"><tspan x="0" y="0" dy="0" style="font-family: Arial, sans-serif; font-size: 10px; fill: black; font-weight: bold;">Spain</tspan></text></g><g transform="translate(810,315)"><text x="0" y="0" text-anchor="middle" dominant-baseline="text-before-edge" transform="translate(0,-5.59375)"><tspan x="0" y="0" dy="0" style="font-family: Arial, sans-serif; font-size: 10px; fill: black; font-weight: bold;">Mexico</tspan></text></g><g transform="translate(293,245)"><text x="0" y="0" text-anchor="middle" dominant-baseline="text-before-edge" transform="translate(0,-5.59375)"><tspan x="0" y="0" dy="0" style="font-family: Arial, sans-serif; font-size: 10px; fill: black; font-weight: bold;">Netherlands</tspan></text></g><g transform="translate(45,490)"><text x="0" y="0" text-anchor="middle" dominant-baseline="text-before-edge" transform="translate(0,-5.59375)"><tspan x="0" y="0" dy="0" style="font-family: Arial, sans-serif; font-size: 10px; fill: black; font-weight: bold;">Indonesia</tspan></text></g><g transform="translate(158,298)"><text x="0" y="0" text-anchor="middle" dominant-baseline="text-before-edge" transform="translate(0,-5.59375)"><tspan x="0" y="0" dy="0" style="font-family: Arial, sans-serif; font-size: 10px; fill: black; font-weight: bold;">Switzerland</tspan></text></g><g transform="translate(675,123)"><text x="0" y="0" text-anchor="middle" dominant-baseline="text-before-edge" transform="translate(0,-5.59375)"><tspan x="0" y="0" dy="0" style="font-family: Arial, sans-serif; font-size: 10px; fill: black; font-weight: bold;">Turkiye</tspan></text></g><g transform="translate(360,455)"><text x="0" y="0" text-anchor="middle" dominant-baseline="text-before-edge" transform="translate(0,-5.59375)"><tspan x="0" y="0" dy="0" style="font-family: Arial, sans-serif; font-size: 10px; fill: black; font-weight: bold;">Saudi Arabia</tspan></text></g><g transform="translate(765,438)"><text x="0" y="0" text-anchor="middle" dominant-baseline="text-before-edge" transform="translate(0,-5.59375)"><tspan x="0" y="0" dy="0" style="font-family: Arial, sans-serif; font-size: 10px; fill: black; font-weight: bold;">Poland</tspan></text></g><g transform="translate(495,227)"><text x="0" y="0" text-anchor="middle" dominant-baseline="text-before-edge" transform="translate(0,-5.59375)"><tspan x="0" y="0" dy="0" style="font-family: Arial, sans-serif; font-size: 10px; fill: black; font-weight: bold;">Austria</tspan></text></g><g transform="translate(563,560)"><text x="0" y="0" text-anchor="middle" dominant-baseline="text-before-edge" transform="translate(0,-5.59375)"><tspan x="0" y="0" dy="0" style="font-family: Arial, sans-serif; font-size: 10px; fill: black; font-weight: bold;">Denmark</tspan></text></g><g transform="translate(248,543)"><text x="0" y="0" text-anchor="middle" dominant-baseline="text-before-edge" transform="translate(0,-5.59375)"><tspan x="0" y="0" dy="0" style="font-family: Arial, sans-serif; font-size: 10px; fill: black; font-weight: bold;">South Africa</tspan></text></g><g transform="translate(405,368)"><text x="0" y="0" text-anchor="middle" dominant-baseline="text-before-edge" transform="translate(0,-5.59375)"><tspan x="0" y="0" dy="0" style="font-family: Arial, sans-serif; font-size: 10px; fill: black; font-weight: bold;">United Arab Emirates</tspan></text></g><g transform="translate(473,105)"><text x="0" y="0" text-anchor="middle" dominant-baseline="text-before-edge" transform="translate(0,-5.59375)"><tspan x="0" y="0" dy="0" style="font-family: Arial, sans-serif; font-size: 10px; fill: black; font-weight: bold;">Thailand</tspan></text></g><g transform="translate(225,525)"><text x="0" y="0" text-anchor="middle" dominant-baseline="text-before-edge" transform="translate(0,-5.59375)"><tspan x="0" y="0" dy="0" style="font-family: Arial, sans-serif; font-size: 10px; fill: black; font-weight: bold;">Egypt, Arab Rep.</tspan></text></g><g transform="translate(23,473)"><text x="0" y="0" text-anchor="middle" dominant-baseline="text-before-edge" transform="translate(0,-5.59375)"><tspan x="0" y="0" dy="0" style="font-family: Arial, sans-serif; font-size: 10px; fill: black; font-weight: bold;">Ireland</tspan></text></g><g transform="translate(270,402)"><text x="0" y="0" text-anchor="middle" dominant-baseline="text-before-edge" transform="translate(0,-5.59375)"><tspan x="0" y="0" dy="0" style="font-family: Arial, sans-serif; font-size: 10px; fill: black; font-weight: bold;">Singapore</tspan></text></g><g transform="translate(180,385)"><text x="0" y="0" text-anchor="middle" dominant-baseline="text-before-edge" transform="translate(0,-5.59375)"><tspan x="0" y="0" dy="0" style="font-family: Arial, sans-serif; font-size: 10px; fill: black; font-weight: bold;">Portugal</tspan></text></g><g transform="translate(450,333)"><text x="0" y="0" text-anchor="middle" dominant-baseline="text-before-edge" transform="translate(0,-5.59375)"><tspan x="0" y="0" dy="0" style="font-family: Arial, sans-serif; font-size: 10px; fill: black; font-weight: bold;">Greece</tspan></text></g><g transform="translate(428,263)"><text x="0" y="0" text-anchor="middle" dominant-baseline="text-before-edge" transform="translate(0,-5.59375)"><tspan x="0" y="0" dy="0" style="font-family: Arial, sans-serif; font-size: 10px; fill: black; font-weight: bold;">Malaysia</tspan></text></g><g transform="translate(698,140)"><text x="0" y="0" text-anchor="middle" dominant-baseline="text-before-edge" transform="translate(0,-5.59375)"><tspan x="0" y="0" dy="0" style="font-family: Arial, sans-serif; font-size: 10px; fill: black; font-weight: bold;">Hong Kong SAR, China</tspan></text></g><g transform="translate(720,613)"><text x="0" y="0" text-anchor="middle" dominant-baseline="text-before-edge" transform="translate(0,-5.59375)"><tspan x="0" y="0" dy="0" style="font-family: Arial, sans-serif; font-size: 10px; fill: black; font-weight: bold;">Hungary</tspan></text></g><g transform="translate(585,595)"><text x="0" y="0" text-anchor="middle" dominant-baseline="text-before-edge" transform="translate(0,-5.59375)"><tspan x="0" y="0" dy="0" style="font-family: Arial, sans-serif; font-size: 10px; fill: black; font-weight: bold;">Czechia</tspan></text></g><g transform="translate(338,683)"><text x="0" y="0" text-anchor="middle" dominant-baseline="text-before-edge" transform="translate(0,-5.59375)"><tspan x="0" y="0" dy="0" style="font-family: Arial, sans-serif; font-size: 10px; fill: black; font-weight: bold;">Slovak Republic</tspan></text></g><g transform="translate(383,648)"><text x="0" y="0" text-anchor="middle" dominant-baseline="text-before-edge" transform="translate(0,-5.59375)"><tspan x="0" y="0" dy="0" style="font-family: Arial, sans-serif; font-size: 10px; fill: black; font-weight: bold;">Ukraine</tspan></text></g><g transform="translate(135,578)"><text x="0" y="0" text-anchor="middle" dominant-baseline="text-before-edge" transform="translate(0,-5.59375)"><tspan x="0" y="0" dy="0" style="font-family: Arial, sans-serif; font-size: 10px; fill: black; font-weight: bold;">Morocco</tspan></text></g><g transform="translate(90,630)"><text x="0" y="0" text-anchor="middle" dominant-baseline="text-before-edge" transform="translate(0,-5.59375)"><tspan x="0" y="0" dy="0" style="font-family: Arial, sans-serif; font-size: 10px; fill: black; font-weight: bold;">Bulgaria</tspan></text></g><g transform="translate(743,508)"><text x="0" y="0" text-anchor="middle" dominant-baseline="text-before-edge" transform="translate(0,-5.59375)"><tspan x="0" y="0" dy="0" style="font-family: Arial, sans-serif; font-size: 10px; fill: black; font-weight: bold;">Croatia</tspan></text></g><g transform="translate(68,665)"><text x="0" y="0" text-anchor="middle" dominant-baseline="text-before-edge" transform="translate(0,-5.59375)"><tspan x="0" y="0" dy="0" style="font-family: Arial, sans-serif; font-size: 10px; fill: black; font-weight: bold;">Bahrain</tspan></text></g><g transform="translate(540,157)"><text x="0" y="0" text-anchor="middle" dominant-baseline="text-before-edge" transform="translate(0,-5.59375)"><tspan x="0" y="0" dy="0" style="font-family: Arial, sans-serif; font-size: 10px; fill: black; font-weight: bold;">Macao SAR, China</tspan></text></g></g></g></g><text y="4" x="4" style="font-family: Arial, sans-serif; font-size: 12px; fill: black; font-weight: bold; dominant-baseline: hanging;"/></g></g><g id="grid"><rect x="0" y="0" width="1000" height="800" fill="none" stroke="#ccc"/></g><clipPath id="serieClipPath"><rect x="-50" y="-50" width="1000" height="800"/></clipPath><g id="legend" transform="translate(1000,50)"><g transform="translate(5,0)"><g class="legendSize" transform="translate(0,0)"><g class="legendCells" transform="translate(50,15.734375)"><g class="cell" transform="translate(0, 2)"><circle class="swatch" r="2" fill="none" stroke="#ccc"/><text class="label" transform="translate( 55,&#10;          5)" font-family="&quot;Arial&quot;, sans-serif" font-size="10px"><tspan x="0" dy="0em">27225555555.6</tspan></text></g><g class="cell" transform="translate(0, 67.734375)"><circle class="swatch" r="50" fill="none" stroke="#ccc"/><text class="label" transform="translate( 55,&#10;          5)" font-family="&quot;Arial&quot;, sans-serif" font-size="10px"><tspan x="0" dy="0em">16748166842105.3</tspan></text></g></g><text class="legendTitle" font-family="&quot;Arial&quot;, sans-serif" font-size="12px" font-weight="bold"><tspan x="0" dy="0em">gdp_dollars</tspan></text></g></g></g></svg>